<svg id="visual" viewBox="0 0 540 960" width="540" height="960" xmlns="http://www.w3.org/2000/svg" xmlns:xlink="http://www.w3.org/1999/xlink" version="1.1"><rect x="0" y="0" width="540" height="960" fill="#001219"></rect><path d="M0 214L54 229L108 169L162 205L216 188L270 206L324 165L378 163L432 164L486 165L540 175L540 0L486 0L432 0L378 0L324 0L270 0L216 0L162 0L108 0L54 0L0 0Z" fill="#0a9396"></path><path d="M0 194L54 163L108 191L162 196L216 149L270 132L324 147L378 174L432 189L486 169L540 167L540 0L486 0L432 0L378 0L324 0L270 0L216 0L162 0L108 0L54 0L0 0Z" fill="#008991"></path><path d="M0 148L54 123L108 127L162 161L216 145L270 150L324 143L378 147L432 122L486 135L540 141L540 0L486 0L432 0L378 0L324 0L270 0L216 0L162 0L108 0L54 0L0 0Z" fill="#007e8a"></path><path d="M0 87L54 113L108 124L162 102L216 124L270 79L324 124L378 113L432 106L486 97L540 109L540 0L486 0L432 0L378 0L324 0L270 0L216 0L162 0L108 0L54 0L0 0Z" fill="#007483"></path><path d="M0 65L54 70L108 55L162 59L216 87L270 63L324 87L378 83L432 69L486 74L540 91L540 0L486 0L432 0L378 0L324 0L270 0L216 0L162 0L108 0L54 0L0 0Z" fill="#00697b"></path><path d="M0 27L54 51L108 53L162 35L216 27L270 51L324 52L378 35L432 43L486 46L540 53L540 0L486 0L432 0L378 0L324 0L270 0L216 0L162 0L108 0L54 0L0 0Z" fill="#005f73"></path></svg>