<svg id="visual" viewBox="0 0 960 540" width="960" height="540" xmlns="http://www.w3.org/2000/svg" xmlns:xlink="http://www.w3.org/1999/xlink" version="1.1"><rect x="0" y="0" width="960" height="540" fill="#001219"></rect><path d="M0 391L96 354L192 388L288 391L384 375L480 391L576 373L672 389L768 351L864 379L960 387L960 541L864 541L768 541L672 541L576 541L480 541L384 541L288 541L192 541L96 541L0 541Z" fill="#005f73"></path><path d="M0 365L96 403L192 370L288 356L384 406L480 399L576 409L672 412L768 354L864 397L960 373L960 541L864 541L768 541L672 541L576 541L480 541L384 541L288 541L192 541L96 541L0 541Z" fill="#006578"></path><path d="M0 391L96 398L192 411L288 375L384 427L480 427L576 403L672 413L768 426L864 371L960 387L960 541L864 541L768 541L672 541L576 541L480 541L384 541L288 541L192 541L96 541L0 541Z" fill="#006c7d"></path><path d="M0 405L96 411L192 409L288 425L384 437L480 426L576 407L672 412L768 416L864 443L960 435L960 541L864 541L768 541L672 541L576 541L480 541L384 541L288 541L192 541L96 541L0 541Z" fill="#007282"></path><path d="M0 420L96 447L192 458L288 420L384 443L480 454L576 429L672 452L768 419L864 429L960 424L960 541L864 541L768 541L672 541L576 541L480 541L384 541L288 541L192 541L96 541L0 541Z" fill="#007987"></path><path d="M0 451L96 474L192 460L288 445L384 457L480 451L576 437L672 475L768 443L864 461L960 460L960 541L864 541L768 541L672 541L576 541L480 541L384 541L288 541L192 541L96 541L0 541Z" fill="#007f8b"></path><path d="M0 465L96 480L192 468L288 480L384 486L480 465L576 485L672 489L768 475L864 479L960 466L960 541L864 541L768 541L672 541L576 541L480 541L384 541L288 541L192 541L96 541L0 541Z" fill="#00868f"></path><path d="M0 487L96 497L192 483L288 499L384 486L480 497L576 487L672 481L768 500L864 503L960 484L960 541L864 541L768 541L672 541L576 541L480 541L384 541L288 541L192 541L96 541L0 541Z" fill="#038c93"></path><path d="M0 511L96 511L192 521L288 514L384 513L480 506L576 512L672 505L768 510L864 521L960 505L960 541L864 541L768 541L672 541L576 541L480 541L384 541L288 541L192 541L96 541L0 541Z" fill="#0a9396"></path></svg>