<svg id="visual" viewBox="0 0 900 600" width="900" height="600" xmlns="http://www.w3.org/2000/svg" xmlns:xlink="http://www.w3.org/1999/xlink" version="1.1"><rect x="0" y="0" width="900" height="600" fill="#edf6f9"></rect><path d="M0 490L8.3 490.7C16.7 491.3 33.3 492.7 50 498C66.7 503.3 83.3 512.7 100 518.2C116.7 523.7 133.3 525.3 150 524.8C166.7 524.3 183.3 521.7 200 522.2C216.7 522.7 233.3 526.3 250 529C266.7 531.7 283.3 533.3 300 534C316.7 534.7 333.3 534.3 350 533.5C366.7 532.7 383.3 531.3 400 530C416.7 528.7 433.3 527.3 450 521.7C466.7 516 483.3 506 500 503.2C516.7 500.3 533.3 504.7 550 502.7C566.7 500.7 583.3 492.3 600 495.5C616.7 498.7 633.3 513.3 650 520.5C666.7 527.7 683.3 527.3 700 525C716.7 522.7 733.3 518.3 750 512.2C766.7 506 783.3 498 800 497.2C816.7 496.3 833.3 502.7 850 502.2C866.7 501.7 883.3 494.3 891.7 490.7L900 487L900 601L891.7 601C883.3 601 866.7 601 850 601C833.3 601 816.7 601 800 601C783.3 601 766.7 601 750 601C733.3 601 716.7 601 700 601C683.3 601 666.7 601 650 601C633.3 601 616.7 601 600 601C583.3 601 566.7 601 550 601C533.3 601 516.7 601 500 601C483.3 601 466.7 601 450 601C433.3 601 416.7 601 400 601C383.3 601 366.7 601 350 601C333.3 601 316.7 601 300 601C283.3 601 266.7 601 250 601C233.3 601 216.7 601 200 601C183.3 601 166.7 601 150 601C133.3 601 116.7 601 100 601C83.3 601 66.7 601 50 601C33.3 601 16.7 601 8.3 601L0 601Z" fill="#006d77" stroke-linecap="round" stroke-linejoin="miter"></path></svg>